<svg width="562" height="134" viewBox="0 0 562 134" fill="none" xmlns="http://www.w3.org/2000/svg">
<path d="M43.4012 37.4996V59.5699H128.72V111.354H26.3501V96.5035H111.669V74.4301H100.881V74.4202H26.3501V22.6462H154.189V0.572754H0.876953V133.424L154.193 133.427V37.4929L43.4012 37.4996V37.4996Z" fill="url(#paint0_linear_408_313)"/>
<path d="M237.161 55.9877C237.161 61.5743 233.043 64.1991 227.451 64.1991H194.671C188.689 64.1991 185.116 61.3051 185.116 55.9201V27.5832C185.116 22.2659 188.457 19.3037 194.671 19.3037H227.528C233.82 19.3037 237.16 22.3331 237.16 27.6504V31.0158L227.295 32.5641V26.8427H196.38C195.37 26.8427 194.904 27.2468 194.904 28.0545V55.5165C194.904 56.257 195.37 56.6606 196.225 56.6606H225.975C226.828 56.6606 227.295 56.257 227.295 55.4492V46.2276H211.527V39.2948H237.161V55.9877Z" fill="white"/>
<path d="M278.634 27.7848L267.682 47.4395H289.431L278.634 27.7848ZM298.363 64.1991L292.927 54.6415H264.186L258.671 64.1991H248.185L274.44 19.3037H283.605L309.239 64.1991H298.363V64.1991Z" fill="white"/>
<path d="M364.071 64.1991L329.972 31.3522V64.1991H320.806V19.3037H329.661L363.683 52.2178V19.3037H372.85V64.1991H364.071Z" fill="white"/>
<path d="M442.133 55.9201C442.133 61.3051 438.404 64.1991 432.501 64.1991H401.431C395.449 64.1991 391.799 61.103 391.799 55.9201V27.7176C391.799 22.1306 394.984 19.3037 401.431 19.3037H432.501C438.716 19.3037 442.133 22.2659 442.133 27.7176V34.5832L432.346 36.0638V26.8427H403.062C402.052 26.8427 401.586 27.314 401.586 28.1889V55.4492C401.586 56.3242 401.819 56.6606 402.984 56.6606H432.346V46.9682L442.133 48.4488V55.9201V55.9201Z" fill="white"/>
<path d="M459.913 64.1991V19.3037H469.7V56.6606H503.18V64.1991H459.913Z" fill="white"/>
<path d="M515.837 64.1991V19.3037H560.656V26.8422H525.624V37.4773H548.616V44.8814H525.624V56.6606H561.123V64.1991H515.837V64.1991Z" fill="white"/>
<path d="M218.165 109.148C218.165 112.593 216.822 114.696 211.813 114.696H191.313C187.027 114.696 185.116 112.728 185.116 109.461V107.179L191.674 106.15V109.685H210.781C211.349 109.685 211.658 109.416 211.658 108.88V102.973C211.658 102.436 211.349 102.168 210.677 102.168H192.036C187.491 102.168 185.787 100.199 185.787 96.9323V90.2203C185.787 86.1037 187.905 84.8506 192.087 84.8506H211.452C216.667 84.8506 217.959 86.8644 217.959 90.2651V92.2784L211.452 93.3075V89.8624H193.275C192.656 89.8624 192.294 90.0411 192.294 90.7122V96.3503C192.294 96.8875 192.449 97.111 193.224 97.111H211.969C216.306 97.111 218.165 98.9904 218.165 102.391V109.148H218.165Z" fill="white"/>
<path d="M251.778 89.8624V114.696H245.272V89.8624H231.072V84.8506H265.979V89.8624H251.778Z" fill="white"/>
<path d="M313.121 109.148C313.121 112.549 310.901 114.696 306.77 114.696H286.011C282.139 114.696 279.608 112.862 279.608 109.237V84.8506H286.114V108.88C286.114 109.551 286.424 109.685 287.096 109.685H305.634C306.409 109.685 306.564 109.551 306.564 108.88V84.8506H313.121V109.148Z" fill="white"/>
<path d="M337.389 109.685H357.786C359.181 109.685 359.336 109.327 359.336 108.253V91.5177C359.336 90.3094 359.078 89.8623 357.684 89.8623H337.389L337.389 109.685V109.685ZM365.894 108.745C365.894 112.683 363.209 114.696 358.871 114.696H330.883V84.8501H359.078C363.621 84.8501 365.894 87.2218 365.894 90.757V108.745Z" fill="white"/>
<path d="M390.157 84.8501H383.65V114.696H390.157V84.8501Z" fill="white"/>
<path d="M415.461 89.8624C414.79 89.8624 414.428 90.1755 414.428 90.757V108.88C414.428 109.461 414.583 109.685 415.358 109.685H435.445C436.22 109.685 436.375 109.461 436.375 108.88V90.757C436.375 90.1755 436.064 89.8624 435.394 89.8624H415.461ZM442.933 107.626C442.933 111.878 441.176 114.696 436.581 114.696H414.222C409.832 114.696 407.921 112.638 407.921 107.626V91.8757C407.921 87.5803 409.523 84.8506 414.222 84.8506H436.53C441.694 84.8506 442.933 87.6251 442.933 91.9653V107.626V107.626Z" fill="white"/>
<defs>
<linearGradient id="paint0_linear_408_313" x1="-16.9828" y1="-32.6904" x2="163.955" y2="221.462" gradientUnits="userSpaceOnUse">
<stop stopColor="#662D91"/>
<stop offset="1" stopColor="#ED1E79"/>
</linearGradient>
</defs>
</svg>
